<!DOCTYPE svg PUBLIC "-//W3C//DTD SVG 1.1//EN" "http://www.w3.org/Graphics/SVG/1.1/DTD/svg11.dtd">
<!-- Uploaded to: SVG Repo, www.svgrepo.com, Transformed by: SVG Repo Mixer Tools -->
<svg fill="#ffffff" height="800px" width="800px" version="1.1" id="Capa_1" xmlns="http://www.w3.org/2000/svg" xmlns:xlink="http://www.w3.org/1999/xlink" viewBox="0 0 298 298" xml:space="preserve">
<g id="SVGRepo_bgCarrier" stroke-width="0"/>
<g id="SVGRepo_tracerCarrier" stroke-linecap="round" stroke-linejoin="round"/>
<g id="SVGRepo_iconCarrier"> <g> <path d="M290.5,141.5h-11.333v-11c0-4.143-3.357-7.5-7.5-7.5c-4.143,0-7.5,3.357-7.5,7.5v11h-9v-17c0-4.143-3.357-7.5-7.5-7.5 c-4.143,0-7.5,3.357-7.5,7.5v17H170.52c-0.307-0.807-0.649-1.599-1.048-2.365l49.531-49.531l12.021,12.021 c1.465,1.464,3.385,2.196,5.304,2.196c1.919,0,3.839-0.732,5.304-2.196c2.929-2.93,2.929-7.678,0-10.607L229.61,78.996l6.363-6.363 l7.778,7.778c1.465,1.464,3.385,2.196,5.304,2.196c1.919,0,3.839-0.732,5.304-2.196c2.929-2.93,2.929-7.678,0-10.607l-7.778-7.778 l7.778-7.777c2.929-2.93,2.929-7.678,0-10.607c-2.93-2.927-7.678-2.929-10.607,0l-7.778,7.777l-7.777-7.777 c-2.93-2.928-7.678-2.928-10.607,0c-2.929,2.93-2.929,7.678,0,10.607l7.777,7.777l-6.363,6.363l-12.02-12.021 c-2.93-2.928-7.678-2.928-10.607,0c-2.929,2.93-2.929,7.678,0,10.607l12.02,12.021l-50.056,49.89 c-0.656-0.286-1.172-0.539-2.172-0.762V57.5H173.5c4.143,0,7.5-3.357,7.5-7.5s-3.357-7.5-7.5-7.5h-17.333v-9H167.5 c4.143,0,7.5-3.357,7.5-7.5s-3.357-7.5-7.5-7.5h-11.333v-11c0-4.143-3.357-7.5-7.5-7.5c-4.143,0-7.5,3.357-7.5,7.5v11H130.5 c-4.143,0-7.5,3.357-7.5,7.5s3.357,7.5,7.5,7.5h10.667v9H124.5c-4.143,0-7.5,3.357-7.5,7.5s3.357,7.5,7.5,7.5h16.667v70.982 c0,0.217-0.965,0.462-1.518,0.726L89.52,78.996l12.062-12.021c2.929-2.929,2.95-7.677,0.021-10.606 c-2.93-2.928-7.667-2.928-10.597,0L78.991,68.389l-6.36-6.363l7.779-7.777c2.929-2.93,2.929-7.678,0.001-10.607 c-2.93-2.928-7.677-2.928-10.607,0l-7.777,7.777l-7.778-7.777c-2.93-2.928-7.678-2.928-10.607,0c-2.929,2.93-2.929,7.678,0,10.607 l7.778,7.777l-7.778,7.778c-2.929,2.93-2.929,7.678,0,10.607c1.465,1.464,3.385,2.196,5.304,2.196c1.919,0,3.839-0.732,5.304-2.196 l7.778-7.778l6.363,6.364L56.369,91.018c-2.929,2.929-2.929,7.677,0,10.606c1.465,1.464,3.385,2.196,5.304,2.196 c1.919,0,3.839-0.732,5.304-2.196l12.02-12.021l50.212,50.211c-0.265,0.553-0.51,1.113-0.727,1.686H57.167v-17 c0-4.143-3.358-7.5-7.501-7.5s-7.499,3.358-7.499,7.5v17h-9v-11c0-4.143-3.357-7.5-7.5-7.5s-7.5,3.357-7.5,7.5v11H7.5 c-4.143,0-7.5,3.357-7.5,7.5s3.357,7.5,7.5,7.5h10.667v11c0,4.143,3.357,7.5,7.5,7.5s7.5-3.357,7.5-7.5v-11h9v17 c0,4.143,3.358,7.5,7.5,7.5c4.143,0,7.5-3.358,7.5-7.5v-17h70.956c0.223,0.682,0.477,1.351,0.763,2.007l-49.891,49.891 l-12.021-12.021c-2.928-2.928-7.677-2.928-10.606,0c-2.929,2.93-2.929,7.678,0,10.607l12.022,12.021l-6.363,6.363l-7.777-7.777 c-2.93-2.929-7.679-2.93-10.606-0.001c-2.93,2.929-2.93,7.678-0.001,10.606l7.778,7.778l-7.778,7.778 c-2.929,2.93-2.929,7.678,0,10.607c1.465,1.464,3.385,2.196,5.304,2.196c1.919,0,3.839-0.732,5.304-2.196l7.778-7.778l7.776,7.777 c1.465,1.465,3.384,2.197,5.304,2.197c1.919,0,3.839-0.732,5.303-2.196c2.93-2.929,2.93-7.678,0.001-10.607l-7.777-7.778 l6.363-6.363l12.021,12.021c1.464,1.464,3.384,2.196,5.303,2.196c1.919,0,3.839-0.732,5.304-2.196c2.929-2.93,2.929-7.678,0-10.607 l-12.021-12.02l49.367-49.533c0.766,0.399,2.197,0.741,2.197,1.048V240.5H124.5c-4.143,0-7.5,3.357-7.5,7.5s3.357,7.5,7.5,7.5 h16.667v9H130.5c-4.143,0-7.5,3.357-7.5,7.5s3.357,7.5,7.5,7.5h10.667v11c0,4.143,3.357,7.5,7.5,7.5c4.143,0,7.5-3.357,7.5-7.5v-11 H167.5c4.143,0,7.5-3.357,7.5-7.5s-3.357-7.5-7.5-7.5h-11.333v-9H173.5c4.143,0,7.5-3.357,7.5-7.5s-3.357-7.5-7.5-7.5h-17.333 v-69.624c1-0.3,1.979-0.667,2.851-1.084l49.295,49.212l-11.979,12.02c-2.929,2.93-2.908,7.678,0.021,10.607 c1.465,1.464,3.395,2.196,5.314,2.196c1.919,0,3.844-0.732,5.309-2.196l12.023-12.021l6.364,6.363l-7.777,7.777 c-2.929,2.93-2.928,7.678,0,10.607c1.465,1.464,3.385,2.196,5.304,2.196c1.919,0,3.839-0.732,5.304-2.196l7.777-7.777l7.778,7.777 c1.465,1.464,3.385,2.196,5.304,2.196c1.919,0,3.839-0.732,5.304-2.196c2.929-2.93,2.929-7.678,0-10.607l-7.778-7.777l7.778-7.778 c2.929-2.93,2.929-7.678,0-10.607c-2.93-2.928-7.678-2.928-10.607,0l-7.778,7.778l-6.362-6.363l12.021-12.021 c2.929-2.93,2.929-7.678,0-10.607c-2.93-2.928-7.678-2.928-10.607,0l-12.02,12.02l-49.211-49.211 c0.417-0.872,0.784-1.766,1.084-2.686h69.29v17c0,4.143,3.357,7.5,7.5,7.5c4.143,0,7.5-3.357,7.5-7.5v-17h9v11 c0,4.143,3.357,7.5,7.5,7.5c4.143,0,7.5-3.357,7.5-7.5v-11H290.5c4.143,0,7.5-3.357,7.5-7.5S294.643,141.5,290.5,141.5z"/> </g> </g>
</svg>